<svg width="1280" height="640" viewBox="0 0 1280 640" fill="none" xmlns="http://www.w3.org/2000/svg" role="img" aria-label="appstore-api-mcp — manage App Store Connect from any AI agent">
  <defs>
    <linearGradient id="bg" x1="0" y1="0" x2="1280" y2="640" gradientUnits="userSpaceOnUse">
      <stop offset="0" stop-color="#0a0f1f"/>
      <stop offset="0.55" stop-color="#0d1430"/>
      <stop offset="1" stop-color="#0a1a3a"/>
    </linearGradient>
    <linearGradient id="tile" x1="0" y1="0" x2="170" y2="170" gradientUnits="userSpaceOnUse">
      <stop offset="0" stop-color="#0a84ff"/>
      <stop offset="1" stop-color="#22d3ee"/>
    </linearGradient>
    <linearGradient id="accent" x1="0" y1="0" x2="1" y2="0">
      <stop offset="0" stop-color="#60a5fa"/>
      <stop offset="1" stop-color="#22d3ee"/>
    </linearGradient>
    <radialGradient id="glow" cx="0.5" cy="0.5" r="0.5">
      <stop offset="0" stop-color="#1d4ed8" stop-opacity="0.45"/>
      <stop offset="1" stop-color="#1d4ed8" stop-opacity="0"/>
    </radialGradient>
    <filter id="soft" x="-20%" y="-20%" width="140%" height="140%">
      <feDropShadow dx="0" dy="8" stdDeviation="18" flood-color="#0a84ff" flood-opacity="0.35"/>
    </filter>
  </defs>

  <!-- background -->
  <rect width="1280" height="640" fill="url(#bg)"/>
  <ellipse cx="250" cy="200" rx="520" ry="420" fill="url(#glow)"/>
  <ellipse cx="1080" cy="560" rx="480" ry="380" fill="url(#glow)" opacity="0.7"/>

  <!-- subtle dot grid -->
  <g fill="#2a3766" opacity="0.45">
    <!-- generated grid of dots -->
    <g>
      <circle cx="80" cy="80" r="2"/><circle cx="160" cy="80" r="2"/><circle cx="240" cy="80" r="2"/><circle cx="320" cy="80" r="2"/><circle cx="400" cy="80" r="2"/><circle cx="480" cy="80" r="2"/><circle cx="560" cy="80" r="2"/><circle cx="640" cy="80" r="2"/><circle cx="720" cy="80" r="2"/><circle cx="800" cy="80" r="2"/><circle cx="880" cy="80" r="2"/><circle cx="960" cy="80" r="2"/><circle cx="1040" cy="80" r="2"/><circle cx="1120" cy="80" r="2"/><circle cx="1200" cy="80" r="2"/>
      <circle cx="80" cy="560" r="2"/><circle cx="160" cy="560" r="2"/><circle cx="240" cy="560" r="2"/><circle cx="320" cy="560" r="2"/><circle cx="400" cy="560" r="2"/><circle cx="480" cy="560" r="2"/><circle cx="560" cy="560" r="2"/><circle cx="640" cy="560" r="2"/><circle cx="720" cy="560" r="2"/><circle cx="800" cy="560" r="2"/><circle cx="880" cy="560" r="2"/><circle cx="960" cy="560" r="2"/><circle cx="1040" cy="560" r="2"/><circle cx="1120" cy="560" r="2"/><circle cx="1200" cy="560" r="2"/>
    </g>
  </g>

  <!-- logo tile: ASO growth bars + terminal prompt -->
  <g transform="translate(120,150)" filter="url(#soft)">
    <rect width="170" height="170" rx="40" fill="url(#tile)"/>
    <!-- ascending bars -->
    <g fill="#ffffff">
      <rect x="38" y="104" width="20" height="40" rx="6" opacity="0.85"/>
      <rect x="72" y="80" width="20" height="64" rx="6" opacity="0.92"/>
      <rect x="106" y="50" width="20" height="94" rx="6"/>
    </g>
    <!-- upward arrow -->
    <path d="M40 96 L86 60 L132 36" stroke="#0a0f1f" stroke-width="7" stroke-linecap="round" stroke-linejoin="round" fill="none" opacity="0.55"/>
    <path d="M118 30 L138 30 L138 50" stroke="#0a0f1f" stroke-width="7" stroke-linecap="round" stroke-linejoin="round" fill="none" opacity="0.55"/>
  </g>

  <!-- wordmark -->
  <text x="330" y="222" font-family="ui-monospace, 'SF Mono', Menlo, Consolas, monospace" font-size="62" font-weight="700" fill="#ffffff">appstore-api-mcp</text>

  <!-- tagline -->
  <text x="332" y="276" font-family="-apple-system, 'Segoe UI', Roboto, Helvetica, Arial, sans-serif" font-size="30" font-weight="500" fill="#c7d2fe">Manage listings &amp; track analytics — from any AI agent.</text>

  <!-- feature chips -->
  <g font-family="-apple-system, 'Segoe UI', Roboto, Helvetica, Arial, sans-serif" font-size="22" font-weight="600">
    <!-- row 1 -->
    <g transform="translate(332,330)">
      <rect x="0" y="0" width="144" height="44" rx="22" fill="#13214a" stroke="#27407e"/>
      <text x="72" y="29" text-anchor="middle" fill="#9fc1ff">keywords</text>
    </g>
    <g transform="translate(490,330)">
      <rect x="0" y="0" width="184" height="44" rx="22" fill="#13214a" stroke="#27407e"/>
      <text x="92" y="29" text-anchor="middle" fill="#9fc1ff">descriptions</text>
    </g>
    <g transform="translate(688,330)">
      <rect x="0" y="0" width="172" height="44" rx="22" fill="#13214a" stroke="#27407e"/>
      <text x="86" y="29" text-anchor="middle" fill="#9fc1ff">screenshots</text>
    </g>
    <g transform="translate(874,330)">
      <rect x="0" y="0" width="150" height="44" rx="22" fill="#13214a" stroke="#27407e"/>
      <text x="75" y="29" text-anchor="middle" fill="#9fc1ff">ASO audit</text>
    </g>
    <!-- row 2 — incl. new analytics features (accent border) -->
    <g transform="translate(332,388)">
      <rect x="0" y="0" width="150" height="44" rx="22" fill="#0e2a3a" stroke="#22d3ee"/>
      <text x="75" y="29" text-anchor="middle" fill="#67e8f9">analytics</text>
    </g>
    <g transform="translate(496,388)">
      <rect x="0" y="0" width="196" height="44" rx="22" fill="#0e2a3a" stroke="#22d3ee"/>
      <text x="98" y="29" text-anchor="middle" fill="#67e8f9">subscriptions</text>
    </g>
    <g transform="translate(706,388)">
      <rect x="0" y="0" width="152" height="44" rx="22" fill="#0e2a3a" stroke="#22d3ee"/>
      <text x="76" y="29" text-anchor="middle" fill="#67e8f9">downloads</text>
    </g>
    <g transform="translate(872,388)">
      <rect x="0" y="0" width="132" height="44" rx="22" fill="#13214a" stroke="#27407e"/>
      <text x="66" y="29" text-anchor="middle" fill="#9fc1ff">dry-run</text>
    </g>
  </g>

  <!-- install line -->
  <g transform="translate(332,470)">
    <rect x="0" y="0" width="430" height="56" rx="12" fill="#06102a" stroke="#1e2f5c"/>
    <text x="22" y="36" font-family="ui-monospace, 'SF Mono', Menlo, Consolas, monospace" font-size="24" fill="#7dd3fc"><tspan fill="#4b5b87">$ </tspan>npx -y appstore-api-mcp</text>
  </g>

  <!-- footer badges -->
  <g font-family="-apple-system, 'Segoe UI', Roboto, Helvetica, Arial, sans-serif" font-size="22" font-weight="600" fill="#7e8bb5">
    <text x="800" y="506">MCP</text>
    <circle cx="852" cy="499" r="3" fill="#3b4a78"/>
    <text x="872" y="506">MIT</text>
    <circle cx="916" cy="499" r="3" fill="#3b4a78"/>
    <text x="936" y="506">provenance-signed</text>
  </g>

  <!-- accent underline -->
  <rect x="332" y="236" width="300" height="4" rx="2" fill="url(#accent)"/>
</svg>
